<?xml version="1.0" encoding="UTF-8" standalone="no"?>
<svg
   xmlns:dc="http://purl.org/dc/elements/1.1/"
   xmlns:cc="http://creativecommons.org/ns#"
   xmlns:rdf="http://www.w3.org/1999/02/22-rdf-syntax-ns#"
   xmlns:svg="http://www.w3.org/2000/svg"
   xmlns="http://www.w3.org/2000/svg"
   xmlns:sodipodi="http://sodipodi.sourceforge.net/DTD/sodipodi-0.dtd"
   xmlns:inkscape="http://www.inkscape.org/namespaces/inkscape"
   viewBox="0 0 150 150"
   version="1.1"
   id="svg524"
   sodipodi:docname="G2.svg"
   width="150"
   height="150"
   inkscape:version="1.0.2 (e86c870, 2021-01-15)">
  <metadata
     id="metadata528">
    <rdf:RDF>
      <cc:Work
         rdf:about="">
        <dc:format>image/svg+xml</dc:format>
        <dc:type
           rdf:resource="http://purl.org/dc/dcmitype/StillImage" />
        <dc:title>G3</dc:title>
      </cc:Work>
    </rdf:RDF>
  </metadata>
  <sodipodi:namedview
     pagecolor="#ffffff"
     bordercolor="#666666"
     borderopacity="1"
     objecttolerance="10"
     gridtolerance="10"
     guidetolerance="10"
     inkscape:pageopacity="0"
     inkscape:pageshadow="2"
     inkscape:window-width="1500"
     inkscape:window-height="936"
     id="namedview526"
     showgrid="false"
     inkscape:zoom="2.1425898"
     inkscape:cx="84.808737"
     inkscape:cy="105.09889"
     inkscape:window-x="0"
     inkscape:window-y="27"
     inkscape:window-maximized="1"
     inkscape:current-layer="svg524" />
  <defs
     id="defs508">
    <style
       id="style494">.cls-1{isolation:isolate;}.cls-2{fill-opacity:0;}.cls-3{fill:#e6e7e8;}.cls-4{fill:none;stroke-miterlimit:110;stroke-width:0.25px;stroke:url(#linear-gradient);}.cls-4,.cls-5{mix-blend-mode:overlay;}.cls-5{fill:url(#linear-gradient-2);}</style>
    <linearGradient
       id="linear-gradient"
       x1="63.5"
       y1="89.919998"
       x2="120.97"
       y2="89.919998"
       gradientUnits="userSpaceOnUse">
      <stop
         offset="0"
         stop-color="#fff"
         id="stop496" />
      <stop
         offset="0.43"
         stop-color="#eeefef"
         id="stop498" />
      <stop
         offset="1"
         stop-color="#d1d3d4"
         id="stop500" />
    </linearGradient>
    <linearGradient
       id="linear-gradient-2"
       x1="111.77"
       y1="123.96"
       x2="111.77"
       y2="99.529999"
       gradientUnits="userSpaceOnUse">
      <stop
         offset="0"
         stop-color="#231f20"
         stop-opacity="0"
         id="stop503" />
      <stop
         offset="1"
         id="stop505" />
    </linearGradient>
  </defs>
  <title
     id="title510">G3</title>
  <g
     class="cls-1"
     id="g522"
     transform="translate(-17.689341,-14.263154)">
    <g
       id="Layer_2"
       data-name="Layer 2">
      <g
         id="Layer_1-2"
         data-name="Layer 1">
        <rect
           class="cls-2"
           width="184.47"
           height="184.47"
           id="rect512"
           x="0"
           y="0" />
        <path
           class="cls-3"
           d="m 71,144.79 q -7.32,-7.93 -7.33,-22.77 V 57.82 Q 63.62,43 71,35.05 q 7.38,-7.95 21.28,-7.93 14,0 21.29,7.93 7.29,7.93 7.32,22.77 V 68.29 H 102.7 V 56.6 q 0,-12 -9.94,-12 -9.94,0 -10,12 v 66.82 q 0,11.87 10,11.86 10,-0.01 9.94,-11.86 V 99.52 H 93.11 V 82.07 h 27.73 v 40 q 0,14.83 -7.32,22.77 -7.32,7.94 -21.29,7.94 Q 78.28,152.73 71,144.79 Z"
           id="path514" />
        <path
           class="cls-4"
           d="m 71,144.79 q -7.32,-7.93 -7.33,-22.77 V 57.82 Q 63.62,43 71,35.05 q 7.38,-7.95 21.28,-7.93 14,0 21.29,7.93 7.29,7.93 7.32,22.77 V 68.29 H 102.7 V 56.6 q 0,-12 -9.94,-12 -9.94,0 -10,12 v 66.82 q 0,11.87 10,11.86 10,-0.01 9.94,-11.86 V 99.52 H 93.11 V 82.07 h 27.73 v 40 q 0,14.83 -7.32,22.77 -7.32,7.94 -21.29,7.94 Q 78.28,152.73 71,144.79 Z"
           id="path516"
           style="stroke:url(#linear-gradient)" />
        <rect
           class="cls-5"
           x="102.7"
           y="99.529999"
           width="18.139999"
           height="24.42"
           id="rect518"
           style="fill:url(#linear-gradient-2)" />
      </g>
    </g>
  </g>
</svg>
