<svg xmlns="http://www.w3.org/2000/svg" xmlns:xlink="http://www.w3.org/1999/xlink" viewBox="0 0 184.47 184.47"><defs><style>.cls-1{isolation:isolate;}.cls-2{fill-opacity:0;}.cls-3{fill:#e6e7e8;}.cls-4{fill:none;stroke-miterlimit:110;stroke-width:0.25px;stroke:url(#linear-gradient);}.cls-4,.cls-5{mix-blend-mode:overlay;}.cls-5{fill:url(#linear-gradient-2);}</style><linearGradient id="linear-gradient" x1="63.5" y1="89.92" x2="120.97" y2="89.92" gradientUnits="userSpaceOnUse"><stop offset="0" stop-color="#fff"/><stop offset="0.43" stop-color="#eeefef"/><stop offset="1" stop-color="#d1d3d4"/></linearGradient><linearGradient id="linear-gradient-2" x1="111.77" y1="123.96" x2="111.77" y2="99.53" gradientUnits="userSpaceOnUse"><stop offset="0" stop-color="#231f20" stop-opacity="0"/><stop offset="1"/></linearGradient></defs><title>G3</title><g class="cls-1"><g id="Layer_2" data-name="Layer 2"><g id="Layer_1-2" data-name="Layer 1"><rect class="cls-2" width="184.47" height="184.47"/><path class="cls-3" d="M71,144.79q-7.32-7.93-7.33-22.77V57.82Q63.62,43,71,35.05t21.28-7.93q14,0,21.29,7.93t7.32,22.77V68.29H102.7V56.6q0-12-9.94-12t-10,12v66.82q0,11.87,10,11.86t9.94-11.86V99.52H93.11V82.07h27.73v40q0,14.83-7.32,22.77t-21.29,7.94Q78.28,152.73,71,144.79Z"/><path class="cls-4" d="M71,144.79q-7.32-7.93-7.33-22.77V57.82Q63.62,43,71,35.05t21.28-7.93q14,0,21.29,7.93t7.32,22.77V68.29H102.7V56.6q0-12-9.94-12t-10,12v66.82q0,11.87,10,11.86t9.94-11.86V99.52H93.11V82.07h27.73v40q0,14.83-7.32,22.77t-21.29,7.94Q78.28,152.73,71,144.79Z"/><rect class="cls-5" x="102.7" y="99.53" width="18.14" height="24.42"/></g></g></g></svg>